<svg height="24" width="24" xmlns="http://www.w3.org/2000/svg"><g transform="translate(0 -1028.4)"><path d="m12 1031.4c-.985-.1-1.715.7-2.0313 1.6-2.6053 5.2-5.2088 10.4-7.8125 15.6-.6178 1.3.5802 2.9 2 2.8h7.8438 7.844c1.42.1 2.618-1.5 2-2.8-2.604-5.2-5.207-10.4-7.813-15.6-.316-.9-1.046-1.7-2.031-1.6z" fill="#f39c12"/><g transform="translate(0 1028.4)"><path d="m12 2c-.985-.0372-1.715.7682-2.0312 1.625-2.6054 5.2106-5.2089 10.418-7.8126 15.625-.6178 1.307.5802 2.919 2 2.75 2.6101-.003 5.2337-.001 7.8438 0 2.61-.001 5.234-.003 7.844 0 1.42.169 2.618-1.443 2-2.75-2.604-5.207-5.207-10.414-7.813-15.625-.316-.8568-1.046-1.6622-2.031-1.625z" fill="#f1c40f"/><path d="m12 8c-.552 0-1 .4477-1 1l.5 7h1l.5-7c0-.5523-.448-1-1-1zm0 9c-.552 0-1 .448-1 1s.448 1 1 1 1-.448 1-1-.448-1-1-1z" fill="#34495e"/></g></g></svg>